<mxfile host="Electron" agent="Mozilla/5.0 (X11; Linux x86_64) AppleWebKit/537.36 (KHTML, like Gecko) draw.io/24.7.5 Chrome/126.0.6478.183 Electron/31.3.0 Safari/537.36" version="24.7.5">
  <diagram name="PÃ¡gina-1" id="oj4BiSyN0uqLxY5q8SQv">
    <mxGraphModel dx="1832" dy="1338" grid="0" gridSize="1.1810999999999998" guides="1" tooltips="1" connect="1" arrows="1" fold="1" page="0" pageScale="1" pageWidth="827" pageHeight="1169" background="#030303" math="0" shadow="0">
      <root>
        <mxCell id="0" />
        <mxCell id="1" parent="0" />
        <mxCell id="ipbNHRgj8kkxQLIE90w0-84" value="" style="ellipse;whiteSpace=wrap;html=1;rounded=1;sketch=1;hachureGap=4;jiggle=2;curveFitting=1;strokeColor=#BD7000;align=center;verticalAlign=middle;fontFamily=Architects Daughter;fontSource=https%3A%2F%2Ffonts.googleapis.com%2Fcss%3Ffamily%3DArchitects%2BDaughter;fontSize=12;fontColor=#000000;fillColor=none;" vertex="1" parent="1">
          <mxGeometry x="802" y="-518" width="804" height="430" as="geometry" />
        </mxCell>
        <mxCell id="ipbNHRgj8kkxQLIE90w0-72" value="" style="rounded=1;whiteSpace=wrap;html=1;sketch=1;hachureGap=4;jiggle=2;curveFitting=1;fontFamily=Architects Daughter;fontSource=https%3A%2F%2Ffonts.googleapis.com%2Fcss%3Ffamily%3DArchitects%2BDaughter;fillColor=none;" vertex="1" parent="1">
          <mxGeometry x="-618.9988999999999" y="671.0011" width="2272" height="1197" as="geometry" />
        </mxCell>
        <mxCell id="ipbNHRgj8kkxQLIE90w0-69" value="" style="rounded=1;whiteSpace=wrap;html=1;sketch=1;hachureGap=4;jiggle=2;curveFitting=1;fontFamily=Architects Daughter;fontSource=https%3A%2F%2Ffonts.googleapis.com%2Fcss%3Ffamily%3DArchitects%2BDaughter;fillColor=none;movable=0;resizable=0;rotatable=0;deletable=0;editable=0;locked=1;connectable=0;" vertex="1" parent="1">
          <mxGeometry x="-603" y="-577" width="2272" height="1197" as="geometry" />
        </mxCell>
        <mxCell id="ipbNHRgj8kkxQLIE90w0-59" value="" style="rounded=0;whiteSpace=wrap;html=1;sketch=1;hachureGap=4;jiggle=2;curveFitting=1;fontFamily=Architects Daughter;fontSource=https%3A%2F%2Ffonts.googleapis.com%2Fcss%3Ffamily%3DArchitects%2BDaughter;fillColor=none;movable=0;resizable=0;rotatable=0;deletable=0;editable=0;locked=1;connectable=0;" vertex="1" parent="1">
          <mxGeometry x="-364" y="-71" width="865" height="282" as="geometry" />
        </mxCell>
        <mxCell id="ipbNHRgj8kkxQLIE90w0-3" style="rounded=0;sketch=1;hachureGap=4;jiggle=2;curveFitting=1;orthogonalLoop=1;jettySize=auto;html=1;fontFamily=Architects Daughter;fontSource=https%3A%2F%2Ffonts.googleapis.com%2Fcss%3Ffamily%3DArchitects%2BDaughter;startArrow=classic;startFill=1;fillColor=#0050ef;strokeColor=#001DBC;dashed=1;" edge="1" parent="1" source="ipbNHRgj8kkxQLIE90w0-43" target="ipbNHRgj8kkxQLIE90w0-2">
          <mxGeometry relative="1" as="geometry">
            <mxPoint x="180" y="110" as="sourcePoint" />
          </mxGeometry>
        </mxCell>
        <mxCell id="ipbNHRgj8kkxQLIE90w0-11" style="edgeStyle=orthogonalEdgeStyle;rounded=0;sketch=1;hachureGap=4;jiggle=2;curveFitting=1;orthogonalLoop=1;jettySize=auto;html=1;fontFamily=Architects Daughter;fontSource=https%3A%2F%2Ffonts.googleapis.com%2Fcss%3Ffamily%3DArchitects%2BDaughter;curved=1;fillColor=#0050ef;strokeColor=#001DBC;" edge="1" parent="1" source="ipbNHRgj8kkxQLIE90w0-43" target="ipbNHRgj8kkxQLIE90w0-40">
          <mxGeometry relative="1" as="geometry">
            <mxPoint x="60" y="110" as="sourcePoint" />
            <mxPoint x="-290" as="targetPoint" />
          </mxGeometry>
        </mxCell>
        <mxCell id="ipbNHRgj8kkxQLIE90w0-13" style="edgeStyle=orthogonalEdgeStyle;rounded=0;sketch=1;hachureGap=4;jiggle=2;curveFitting=1;orthogonalLoop=1;jettySize=auto;html=1;fontFamily=Architects Daughter;fontSource=https%3A%2F%2Ffonts.googleapis.com%2Fcss%3Ffamily%3DArchitects%2BDaughter;curved=1;fillColor=#0050ef;strokeColor=#001DBC;" edge="1" parent="1" source="ipbNHRgj8kkxQLIE90w0-43" target="ipbNHRgj8kkxQLIE90w0-42">
          <mxGeometry relative="1" as="geometry">
            <mxPoint x="180" y="110" as="sourcePoint" />
            <mxPoint x="330" y="-20" as="targetPoint" />
          </mxGeometry>
        </mxCell>
        <mxCell id="ipbNHRgj8kkxQLIE90w0-25" style="edgeStyle=orthogonalEdgeStyle;rounded=0;sketch=1;hachureGap=4;jiggle=2;curveFitting=1;orthogonalLoop=1;jettySize=auto;html=1;fontFamily=Architects Daughter;fontSource=https%3A%2F%2Ffonts.googleapis.com%2Fcss%3Ffamily%3DArchitects%2BDaughter;curved=1;fillColor=#0050ef;strokeColor=#001DBC;" edge="1" parent="1" source="ipbNHRgj8kkxQLIE90w0-2" target="ipbNHRgj8kkxQLIE90w0-24">
          <mxGeometry relative="1" as="geometry">
            <mxPoint x="507" y="228" as="sourcePoint" />
            <Array as="points">
              <mxPoint x="560" y="183" />
              <mxPoint x="560" y="171" />
            </Array>
          </mxGeometry>
        </mxCell>
        <mxCell id="ipbNHRgj8kkxQLIE90w0-2" value="" style="image;html=1;image=img/lib/clip_art/networking/Wireless_Router_128x128.png;sketch=1;hachureGap=4;jiggle=2;curveFitting=1;fontFamily=Architects Daughter;fontSource=https%3A%2F%2Ffonts.googleapis.com%2Fcss%3Ffamily%3DArchitects%2BDaughter;" vertex="1" parent="1">
          <mxGeometry x="390" y="84" width="80" height="80" as="geometry" />
        </mxCell>
        <mxCell id="ipbNHRgj8kkxQLIE90w0-5" style="edgeStyle=orthogonalEdgeStyle;rounded=0;sketch=1;hachureGap=4;jiggle=2;curveFitting=1;orthogonalLoop=1;jettySize=auto;html=1;fontFamily=Architects Daughter;fontSource=https%3A%2F%2Ffonts.googleapis.com%2Fcss%3Ffamily%3DArchitects%2BDaughter;fillColor=#0050ef;strokeColor=#001DBC;" edge="1" parent="1" source="ipbNHRgj8kkxQLIE90w0-4" target="ipbNHRgj8kkxQLIE90w0-43">
          <mxGeometry relative="1" as="geometry">
            <mxPoint x="120" y="80" as="targetPoint" />
          </mxGeometry>
        </mxCell>
        <mxCell id="ipbNHRgj8kkxQLIE90w0-4" value="data" style="ellipse;whiteSpace=wrap;html=1;sketch=1;hachureGap=4;jiggle=2;curveFitting=1;fontFamily=Architects Daughter;fontSource=https%3A%2F%2Ffonts.googleapis.com%2Fcss%3Ffamily%3DArchitects%2BDaughter;fillColor=none;fontSize=20;horizontal=1;verticalAlign=middle;labelBackgroundColor=none;labelBorderColor=none;textShadow=0;" vertex="1" parent="1">
          <mxGeometry x="55" y="-210" width="120" height="80" as="geometry" />
        </mxCell>
        <mxCell id="ipbNHRgj8kkxQLIE90w0-6" value="&lt;span style=&quot;background-color: rgb(0, 0, 0);&quot;&gt;Web&lt;/span&gt;" style="image;html=1;image=img/lib/clip_art/computers/Network_2_128x128.png;sketch=1;hachureGap=4;jiggle=2;curveFitting=1;fontFamily=Architects Daughter;fontSource=https%3A%2F%2Ffonts.googleapis.com%2Fcss%3Ffamily%3DArchitects%2BDaughter;imageBackground=none;imageBorder=none;" vertex="1" parent="1">
          <mxGeometry x="878" y="-435" width="80" height="80" as="geometry" />
        </mxCell>
        <mxCell id="ipbNHRgj8kkxQLIE90w0-12" style="edgeStyle=orthogonalEdgeStyle;rounded=0;sketch=1;hachureGap=4;jiggle=2;curveFitting=1;orthogonalLoop=1;jettySize=auto;html=1;fontFamily=Architects Daughter;fontSource=https%3A%2F%2Ffonts.googleapis.com%2Fcss%3Ffamily%3DArchitects%2BDaughter;curved=1;fillColor=#0050ef;strokeColor=#001DBC;" edge="1" parent="1" source="ipbNHRgj8kkxQLIE90w0-43" target="ipbNHRgj8kkxQLIE90w0-41">
          <mxGeometry relative="1" as="geometry">
            <mxPoint x="60" y="110" as="sourcePoint" />
            <mxPoint x="-91.96000000000004" y="1.0199999999999818" as="targetPoint" />
          </mxGeometry>
        </mxCell>
        <mxCell id="ipbNHRgj8kkxQLIE90w0-14" value="data" style="ellipse;whiteSpace=wrap;html=1;sketch=1;hachureGap=4;jiggle=2;curveFitting=1;fontFamily=Architects Daughter;fontSource=https%3A%2F%2Ffonts.googleapis.com%2Fcss%3Ffamily%3DArchitects%2BDaughter;fillColor=none;fontSize=20;horizontal=1;verticalAlign=middle;labelBackgroundColor=none;labelBorderColor=none;textShadow=0;" vertex="1" parent="1">
          <mxGeometry x="-160" y="-210" width="120" height="80" as="geometry" />
        </mxCell>
        <mxCell id="ipbNHRgj8kkxQLIE90w0-15" value="data&lt;div style=&quot;font-size: 20px;&quot;&gt;&lt;br style=&quot;font-size: 20px;&quot;&gt;&lt;/div&gt;" style="ellipse;whiteSpace=wrap;html=1;sketch=1;hachureGap=4;jiggle=2;curveFitting=1;fontFamily=Architects Daughter;fontSource=https%3A%2F%2Ffonts.googleapis.com%2Fcss%3Ffamily%3DArchitects%2BDaughter;fillColor=none;fontSize=20;horizontal=1;verticalAlign=middle;labelBackgroundColor=none;labelBorderColor=none;textShadow=0;" vertex="1" parent="1">
          <mxGeometry x="-350" y="-210" width="120" height="80" as="geometry" />
        </mxCell>
        <mxCell id="ipbNHRgj8kkxQLIE90w0-16" value="data" style="ellipse;whiteSpace=wrap;html=1;sketch=1;hachureGap=4;jiggle=2;curveFitting=1;fontFamily=Architects Daughter;fontSource=https%3A%2F%2Ffonts.googleapis.com%2Fcss%3Ffamily%3DArchitects%2BDaughter;fillColor=none;fontSize=20;horizontal=1;verticalAlign=middle;labelBackgroundColor=none;labelBorderColor=none;textShadow=0;" vertex="1" parent="1">
          <mxGeometry x="270" y="-203" width="120" height="80" as="geometry" />
        </mxCell>
        <mxCell id="ipbNHRgj8kkxQLIE90w0-36" style="edgeStyle=orthogonalEdgeStyle;rounded=0;sketch=1;hachureGap=4;jiggle=2;curveFitting=1;orthogonalLoop=1;jettySize=auto;html=1;fontFamily=Architects Daughter;fontSource=https%3A%2F%2Ffonts.googleapis.com%2Fcss%3Ffamily%3DArchitects%2BDaughter;curved=1;fillColor=#0050ef;strokeColor=#001DBC;" edge="1" parent="1" source="ipbNHRgj8kkxQLIE90w0-20" target="ipbNHRgj8kkxQLIE90w0-35">
          <mxGeometry relative="1" as="geometry" />
        </mxCell>
        <mxCell id="ipbNHRgj8kkxQLIE90w0-20" value="&lt;font style=&quot;font-size: 20px;&quot;&gt;&lt;b&gt;Tratamento&lt;/b&gt;&lt;/font&gt;" style="sketch=0;aspect=fixed;pointerEvents=1;shadow=0;dashed=0;html=1;strokeColor=none;labelPosition=center;verticalLabelPosition=bottom;verticalAlign=top;align=center;fillColor=#00188D;shape=mxgraph.mscae.enterprise.filter;hachureGap=4;jiggle=2;curveFitting=1;fontFamily=Architects Daughter;fontSource=https%3A%2F%2Ffonts.googleapis.com%2Fcss%3Ffamily%3DArchitects%2BDaughter;" vertex="1" parent="1">
          <mxGeometry x="763" y="149" width="76.67" height="69" as="geometry" />
        </mxCell>
        <mxCell id="ipbNHRgj8kkxQLIE90w0-23" value="&lt;font style=&quot;font-size: 20px;&quot;&gt;&lt;b&gt;AnÃ¡lise&lt;/b&gt;&lt;/font&gt;" style="image;aspect=fixed;html=1;points=[];align=center;fontSize=12;image=img/lib/azure2/ai_machine_learning/Anomaly_Detector.svg;sketch=1;hachureGap=4;jiggle=2;curveFitting=1;fontFamily=Architects Daughter;fontSource=https%3A%2F%2Ffonts.googleapis.com%2Fcss%3Ffamily%3DArchitects%2BDaughter;labelBackgroundColor=#030303;" vertex="1" parent="1">
          <mxGeometry x="1297" y="-48" width="68" height="68" as="geometry" />
        </mxCell>
        <mxCell id="ipbNHRgj8kkxQLIE90w0-24" value="&lt;font style=&quot;font-size: 20px;&quot;&gt;&lt;b&gt;CSV&lt;/b&gt;&lt;/font&gt;&lt;div style=&quot;font-size: 20px;&quot;&gt;&lt;br&gt;&lt;/div&gt;" style="sketch=0;pointerEvents=1;shadow=0;dashed=0;html=1;strokeColor=none;fillColor=#505050;labelPosition=center;verticalLabelPosition=bottom;verticalAlign=top;outlineConnect=0;align=center;shape=mxgraph.office.users.csv_file;hachureGap=4;jiggle=2;curveFitting=1;fontFamily=Architects Daughter;fontSource=https%3A%2F%2Ffonts.googleapis.com%2Fcss%3Ffamily%3DArchitects%2BDaughter;" vertex="1" parent="1">
          <mxGeometry x="618" y="149" width="59" height="43" as="geometry" />
        </mxCell>
        <mxCell id="ipbNHRgj8kkxQLIE90w0-26" style="edgeStyle=orthogonalEdgeStyle;rounded=0;sketch=1;hachureGap=4;jiggle=2;curveFitting=1;orthogonalLoop=1;jettySize=auto;html=1;fontFamily=Architects Daughter;fontSource=https%3A%2F%2Ffonts.googleapis.com%2Fcss%3Ffamily%3DArchitects%2BDaughter;curved=1;entryX=0.215;entryY=0.361;entryDx=0;entryDy=0;entryPerimeter=0;fillColor=#0050ef;strokeColor=#001DBC;" edge="1" parent="1" source="ipbNHRgj8kkxQLIE90w0-24" target="ipbNHRgj8kkxQLIE90w0-20">
          <mxGeometry relative="1" as="geometry">
            <mxPoint x="754" y="149" as="targetPoint" />
          </mxGeometry>
        </mxCell>
        <mxCell id="ipbNHRgj8kkxQLIE90w0-81" style="edgeStyle=orthogonalEdgeStyle;rounded=0;sketch=1;hachureGap=4;jiggle=2;curveFitting=1;orthogonalLoop=1;jettySize=auto;html=1;entryX=0.5;entryY=1;entryDx=0;entryDy=0;fontFamily=Architects Daughter;fontSource=https%3A%2F%2Ffonts.googleapis.com%2Fcss%3Ffamily%3DArchitects%2BDaughter;fontSize=12;fontColor=default;curved=1;fillColor=#0050ef;strokeColor=#001DBC;" edge="1" parent="1" source="ipbNHRgj8kkxQLIE90w0-28" target="ipbNHRgj8kkxQLIE90w0-49">
          <mxGeometry relative="1" as="geometry" />
        </mxCell>
        <mxCell id="ipbNHRgj8kkxQLIE90w0-28" value="&lt;span style=&quot;background-color: rgb(3, 3, 3);&quot;&gt;&lt;font style=&quot;font-size: 15px;&quot;&gt;&lt;b&gt;Dashboard&lt;/b&gt;&lt;/font&gt;&lt;/span&gt;" style="image;aspect=fixed;html=1;points=[];align=center;fontSize=12;image=img/lib/azure2/general/Dashboard2.svg;sketch=1;hachureGap=4;jiggle=2;curveFitting=1;fontFamily=Architects Daughter;fontSource=https%3A%2F%2Ffonts.googleapis.com%2Fcss%3Ffamily%3DArchitects%2BDaughter;" vertex="1" parent="1">
          <mxGeometry x="1287" y="-183" width="68" height="48" as="geometry" />
        </mxCell>
        <mxCell id="ipbNHRgj8kkxQLIE90w0-86" style="edgeStyle=orthogonalEdgeStyle;rounded=0;sketch=1;hachureGap=4;jiggle=2;curveFitting=1;orthogonalLoop=1;jettySize=auto;html=1;fontFamily=Architects Daughter;fontSource=https%3A%2F%2Ffonts.googleapis.com%2Fcss%3Ffamily%3DArchitects%2BDaughter;fontSize=12;fontColor=default;curved=1;entryX=0.949;entryY=1.052;entryDx=0;entryDy=0;entryPerimeter=0;dashed=1;dashPattern=8 8;fillColor=#a20025;strokeColor=#00FF80;" edge="1" parent="1" source="ipbNHRgj8kkxQLIE90w0-35" target="ipbNHRgj8kkxQLIE90w0-37">
          <mxGeometry relative="1" as="geometry">
            <mxPoint x="1162" y="63" as="targetPoint" />
            <Array as="points">
              <mxPoint x="1278" y="229" />
              <mxPoint x="1278" y="51" />
              <mxPoint x="1162" y="51" />
              <mxPoint x="1162" y="29" />
            </Array>
          </mxGeometry>
        </mxCell>
        <mxCell id="ipbNHRgj8kkxQLIE90w0-35" value="&lt;font style=&quot;font-size: 20px;&quot;&gt;sqlite3 /&lt;/font&gt;&lt;div&gt;&lt;font style=&quot;font-size: 20px;&quot;&gt;MySQL&lt;/font&gt;&lt;/div&gt;" style="image;sketch=0;aspect=fixed;html=1;points=[];align=center;fontSize=12;image=img/lib/mscae/SQL_Database_generic.svg;hachureGap=4;jiggle=2;curveFitting=1;fontFamily=Architects Daughter;fontSource=https%3A%2F%2Ffonts.googleapis.com%2Fcss%3Ffamily%3DArchitects%2BDaughter;labelBackgroundColor=#030303;fontStyle=1" vertex="1" parent="1">
          <mxGeometry x="1031" y="206" width="68.16" height="89.68" as="geometry" />
        </mxCell>
        <mxCell id="ipbNHRgj8kkxQLIE90w0-38" style="edgeStyle=isometricEdgeStyle;rounded=0;sketch=1;hachureGap=4;jiggle=2;curveFitting=1;orthogonalLoop=1;jettySize=auto;html=1;fontFamily=Architects Daughter;fontSource=https%3A%2F%2Ffonts.googleapis.com%2Fcss%3Ffamily%3DArchitects%2BDaughter;endArrow=classic;endFill=1;strokeWidth=1.1811;exitX=-0.05;exitY=0.076;exitDx=0;exitDy=0;exitPerimeter=0;strokeColor=#001DBC;flowAnimation=1;dashed=1;elbow=vertical;jumpStyle=gap;jumpSize=0;shadow=1;fillColor=#0050ef;curved=1;dashPattern=8 8;" edge="1" parent="1" source="ipbNHRgj8kkxQLIE90w0-37" target="ipbNHRgj8kkxQLIE90w0-35">
          <mxGeometry relative="1" as="geometry">
            <mxPoint x="1026" y="10" as="sourcePoint" />
            <Array as="points">
              <mxPoint x="924" y="9" />
            </Array>
          </mxGeometry>
        </mxCell>
        <mxCell id="ipbNHRgj8kkxQLIE90w0-39" style="edgeStyle=orthogonalEdgeStyle;rounded=0;sketch=1;hachureGap=4;jiggle=2;curveFitting=1;orthogonalLoop=1;jettySize=auto;html=1;fontFamily=Architects Daughter;fontSource=https%3A%2F%2Ffonts.googleapis.com%2Fcss%3Ffamily%3DArchitects%2BDaughter;curved=1;strokeColor=#00FF80;" edge="1" parent="1" source="ipbNHRgj8kkxQLIE90w0-37" target="ipbNHRgj8kkxQLIE90w0-23">
          <mxGeometry relative="1" as="geometry" />
        </mxCell>
        <mxCell id="ipbNHRgj8kkxQLIE90w0-37" value="&lt;font size=&quot;1&quot; style=&quot;&quot; color=&quot;#ffffff&quot;&gt;&lt;b style=&quot;font-size: 20px;&quot;&gt;query&lt;/b&gt;&lt;/font&gt;" style="sketch=0;outlineConnect=0;fontColor=#232F3E;gradientColor=none;fillColor=#8C4FFF;strokeColor=none;dashed=0;verticalLabelPosition=bottom;verticalAlign=top;align=center;html=1;fontSize=12;fontStyle=0;aspect=fixed;pointerEvents=1;shape=mxgraph.aws4.redshift_query_editor_v20_light;hachureGap=4;jiggle=2;curveFitting=1;fontFamily=Architects Daughter;fontSource=https%3A%2F%2Ffonts.googleapis.com%2Fcss%3Ffamily%3DArchitects%2BDaughter;" vertex="1" parent="1">
          <mxGeometry x="1069" y="-53" width="78" height="78" as="geometry" />
        </mxCell>
        <mxCell id="ipbNHRgj8kkxQLIE90w0-44" style="edgeStyle=orthogonalEdgeStyle;rounded=0;sketch=1;hachureGap=4;jiggle=2;curveFitting=1;orthogonalLoop=1;jettySize=auto;html=1;fontFamily=Architects Daughter;fontSource=https%3A%2F%2Ffonts.googleapis.com%2Fcss%3Ffamily%3DArchitects%2BDaughter;fillColor=#0050ef;strokeColor=#001DBC;" edge="1" parent="1" source="ipbNHRgj8kkxQLIE90w0-40" target="ipbNHRgj8kkxQLIE90w0-15">
          <mxGeometry relative="1" as="geometry" />
        </mxCell>
        <mxCell id="ipbNHRgj8kkxQLIE90w0-40" value="&lt;b style=&quot;color: rgb(255, 255, 255);&quot;&gt;&lt;font style=&quot;font-size: 15px;&quot;&gt;esp32/8266&lt;/font&gt;&lt;/b&gt;" style="sketch=0;outlineConnect=0;fontColor=#232F3E;gradientColor=none;fillColor=#7AA116;strokeColor=none;dashed=0;verticalLabelPosition=bottom;verticalAlign=top;align=center;html=1;fontSize=12;fontStyle=0;aspect=fixed;pointerEvents=1;shape=mxgraph.aws4.iot_thing_plc;hachureGap=4;jiggle=2;curveFitting=1;fontFamily=Architects Daughter;fontSource=https%3A%2F%2Ffonts.googleapis.com%2Fcss%3Ffamily%3DArchitects%2BDaughter;" vertex="1" parent="1">
          <mxGeometry x="-319" y="-60" width="58" height="58" as="geometry" />
        </mxCell>
        <mxCell id="ipbNHRgj8kkxQLIE90w0-45" style="edgeStyle=orthogonalEdgeStyle;rounded=0;sketch=1;hachureGap=4;jiggle=2;curveFitting=1;orthogonalLoop=1;jettySize=auto;html=1;fontFamily=Architects Daughter;fontSource=https%3A%2F%2Ffonts.googleapis.com%2Fcss%3Ffamily%3DArchitects%2BDaughter;fillColor=#0050ef;strokeColor=#001DBC;" edge="1" parent="1" source="ipbNHRgj8kkxQLIE90w0-41" target="ipbNHRgj8kkxQLIE90w0-14">
          <mxGeometry relative="1" as="geometry" />
        </mxCell>
        <mxCell id="ipbNHRgj8kkxQLIE90w0-41" value="&lt;b style=&quot;color: rgb(255, 255, 255);&quot;&gt;&lt;font style=&quot;font-size: 15px;&quot;&gt;esp32/8266&lt;/font&gt;&lt;/b&gt;" style="sketch=0;outlineConnect=0;fontColor=#232F3E;gradientColor=none;fillColor=#7AA116;strokeColor=none;dashed=0;verticalLabelPosition=bottom;verticalAlign=top;align=center;html=1;fontSize=12;fontStyle=0;aspect=fixed;pointerEvents=1;shape=mxgraph.aws4.iot_thing_plc;hachureGap=4;jiggle=2;curveFitting=1;fontFamily=Architects Daughter;fontSource=https%3A%2F%2Ffonts.googleapis.com%2Fcss%3Ffamily%3DArchitects%2BDaughter;" vertex="1" parent="1">
          <mxGeometry x="-128.9989" y="-57.99890000000002" width="58" height="58" as="geometry" />
        </mxCell>
        <mxCell id="ipbNHRgj8kkxQLIE90w0-46" style="edgeStyle=orthogonalEdgeStyle;rounded=0;sketch=1;hachureGap=4;jiggle=2;curveFitting=1;orthogonalLoop=1;jettySize=auto;html=1;fontFamily=Architects Daughter;fontSource=https%3A%2F%2Ffonts.googleapis.com%2Fcss%3Ffamily%3DArchitects%2BDaughter;fillColor=#0050ef;strokeColor=#001DBC;" edge="1" parent="1" source="ipbNHRgj8kkxQLIE90w0-42" target="ipbNHRgj8kkxQLIE90w0-16">
          <mxGeometry relative="1" as="geometry" />
        </mxCell>
        <mxCell id="ipbNHRgj8kkxQLIE90w0-42" value="&lt;b style=&quot;color: rgb(255, 255, 255);&quot;&gt;&lt;font style=&quot;font-size: 15px;&quot;&gt;esp32/8266&lt;/font&gt;&lt;/b&gt;" style="sketch=0;outlineConnect=0;fontColor=#232F3E;gradientColor=none;fillColor=#7AA116;strokeColor=none;dashed=0;verticalLabelPosition=bottom;verticalAlign=top;align=center;html=1;fontSize=12;fontStyle=0;aspect=fixed;pointerEvents=1;shape=mxgraph.aws4.iot_thing_plc;hachureGap=4;jiggle=2;curveFitting=1;fontFamily=Architects Daughter;fontSource=https%3A%2F%2Ffonts.googleapis.com%2Fcss%3Ffamily%3DArchitects%2BDaughter;" vertex="1" parent="1">
          <mxGeometry x="301.0022" y="-62.9978" width="58" height="58" as="geometry" />
        </mxCell>
        <mxCell id="ipbNHRgj8kkxQLIE90w0-43" value="&lt;font size=&quot;1&quot; color=&quot;#ffffff&quot;&gt;&lt;b style=&quot;font-size: 15px;&quot;&gt;esp32/8266&lt;/b&gt;&lt;/font&gt;" style="sketch=0;outlineConnect=0;fontColor=#232F3E;gradientColor=none;fillColor=#7AA116;strokeColor=none;dashed=0;verticalLabelPosition=bottom;verticalAlign=top;align=center;html=1;fontSize=12;fontStyle=0;aspect=fixed;pointerEvents=1;shape=mxgraph.aws4.iot_thing_plc;hachureGap=4;jiggle=2;curveFitting=1;fontFamily=Architects Daughter;fontSource=https%3A%2F%2Ffonts.googleapis.com%2Fcss%3Ffamily%3DArchitects%2BDaughter;" vertex="1" parent="1">
          <mxGeometry x="75.0033" y="-42.99670000000003" width="58" height="58" as="geometry" />
        </mxCell>
        <mxCell id="ipbNHRgj8kkxQLIE90w0-49" value="Exemplo de CondiÃ§Ã£o" style="swimlane;sketch=1;hachureGap=4;jiggle=2;curveFitting=1;fontFamily=Architects Daughter;fontSource=https%3A%2F%2Ffonts.googleapis.com%2Fcss%3Ffamily%3DArchitects%2BDaughter;" vertex="1" parent="1">
          <mxGeometry x="1241" y="-324" width="154" height="68" as="geometry" />
        </mxCell>
        <mxCell id="ipbNHRgj8kkxQLIE90w0-51" value="&lt;font style=&quot;font-size: 15px;&quot;&gt;Valor maior que x&lt;/font&gt;" style="text;html=1;align=center;verticalAlign=middle;resizable=0;points=[];autosize=1;strokeColor=none;fillColor=none;fontFamily=Architects Daughter;fontSource=https%3A%2F%2Ffonts.googleapis.com%2Fcss%3Ffamily%3DArchitects%2BDaughter;" vertex="1" parent="ipbNHRgj8kkxQLIE90w0-49">
          <mxGeometry x="10.5" y="27" width="141" height="30" as="geometry" />
        </mxCell>
        <mxCell id="ipbNHRgj8kkxQLIE90w0-83" style="edgeStyle=orthogonalEdgeStyle;rounded=0;sketch=1;hachureGap=4;jiggle=2;curveFitting=1;orthogonalLoop=1;jettySize=auto;html=1;entryX=1;entryY=0.5;entryDx=0;entryDy=0;fontFamily=Architects Daughter;fontSource=https%3A%2F%2Ffonts.googleapis.com%2Fcss%3Ffamily%3DArchitects%2BDaughter;fontSize=12;fontColor=default;strokeColor=#BD7000;curved=1;fillColor=#f0a30a;" edge="1" parent="1" source="ipbNHRgj8kkxQLIE90w0-53" target="ipbNHRgj8kkxQLIE90w0-6">
          <mxGeometry relative="1" as="geometry" />
        </mxCell>
        <mxCell id="ipbNHRgj8kkxQLIE90w0-53" value="" style="verticalLabelPosition=bottom;html=1;verticalAlign=top;align=center;strokeColor=#BD7000;fillColor=#f0a30a;shape=mxgraph.azure.azure_alert;hachureGap=4;fontFamily=Architects Daughter;fontSource=https%3A%2F%2Ffonts.googleapis.com%2Fcss%3Ffamily%3DArchitects%2BDaughter;fontColor=#000000;" vertex="1" parent="1">
          <mxGeometry x="1296" y="-435" width="50" height="42.5" as="geometry" />
        </mxCell>
        <mxCell id="ipbNHRgj8kkxQLIE90w0-56" value="CSV&lt;div&gt;&lt;br&gt;&lt;/div&gt;" style="sketch=0;pointerEvents=1;shadow=0;dashed=0;html=1;strokeColor=none;fillColor=#505050;labelPosition=center;verticalLabelPosition=bottom;verticalAlign=top;outlineConnect=0;align=center;shape=mxgraph.office.users.csv_file;hachureGap=4;jiggle=2;curveFitting=1;fontFamily=Architects Daughter;fontSource=https%3A%2F%2Ffonts.googleapis.com%2Fcss%3Ffamily%3DArchitects%2BDaughter;" vertex="1" parent="1">
          <mxGeometry x="-134.9989" y="1198.9411" width="59" height="43" as="geometry" />
        </mxCell>
        <mxCell id="ipbNHRgj8kkxQLIE90w0-58" value="&lt;font style=&quot;font-size: 20px;&quot; color=&quot;#ffffff&quot;&gt;bot&lt;/font&gt;&lt;div style=&quot;font-size: 20px;&quot;&gt;&lt;br&gt;&lt;/div&gt;" style="aspect=fixed;sketch=0;html=1;dashed=0;whitespace=wrap;verticalLabelPosition=bottom;verticalAlign=top;fillColor=#2875E2;strokeColor=#ffffff;points=[[0.005,0.63,0],[0.1,0.2,0],[0.9,0.2,0],[0.5,0,0],[0.995,0.63,0],[0.72,0.99,0],[0.5,1,0],[0.28,0.99,0]];shape=mxgraph.kubernetes.icon2;kubernetesLabel=1;prIcon=api;hachureGap=4;jiggle=2;curveFitting=1;fontFamily=Architects Daughter;fontSource=https%3A%2F%2Ffonts.googleapis.com%2Fcss%3Ffamily%3DArchitects%2BDaughter;" vertex="1" parent="1">
          <mxGeometry x="-434.99999999999994" y="1183.44" width="77.08" height="74" as="geometry" />
        </mxCell>
        <mxCell id="ipbNHRgj8kkxQLIE90w0-60" value="rede mesh" style="text;html=1;align=center;verticalAlign=middle;whiteSpace=wrap;rounded=0;fontFamily=Architects Daughter;fontSource=https%3A%2F%2Ffonts.googleapis.com%2Fcss%3Ffamily%3DArchitects%2BDaughter;fontSize=20;fontStyle=1;movable=0;resizable=0;rotatable=0;deletable=0;editable=0;locked=1;connectable=0;" vertex="1" parent="1">
          <mxGeometry x="-7" y="208" width="135" height="47" as="geometry" />
        </mxCell>
        <mxCell id="ipbNHRgj8kkxQLIE90w0-67" style="edgeStyle=orthogonalEdgeStyle;rounded=0;sketch=1;hachureGap=4;jiggle=2;curveFitting=1;orthogonalLoop=1;jettySize=auto;html=1;fontFamily=Architects Daughter;fontSource=https%3A%2F%2Ffonts.googleapis.com%2Fcss%3Ffamily%3DArchitects%2BDaughter;exitX=0.6;exitY=0.5;exitDx=0;exitDy=0;exitPerimeter=0;" edge="1" parent="1" source="ipbNHRgj8kkxQLIE90w0-64" target="ipbNHRgj8kkxQLIE90w0-56">
          <mxGeometry relative="1" as="geometry" />
        </mxCell>
        <mxCell id="ipbNHRgj8kkxQLIE90w0-64" value="Tratamento" style="sketch=0;aspect=fixed;pointerEvents=1;shadow=0;dashed=0;html=1;strokeColor=none;labelPosition=center;verticalLabelPosition=bottom;verticalAlign=top;align=center;fillColor=#00188D;shape=mxgraph.mscae.enterprise.filter;hachureGap=4;jiggle=2;curveFitting=1;fontFamily=Architects Daughter;fontSource=https%3A%2F%2Ffonts.googleapis.com%2Fcss%3Ffamily%3DArchitects%2BDaughter;" vertex="1" parent="1">
          <mxGeometry x="-284" y="1186.94" width="73.32" height="66" as="geometry" />
        </mxCell>
        <mxCell id="ipbNHRgj8kkxQLIE90w0-66" style="edgeStyle=orthogonalEdgeStyle;rounded=0;sketch=1;hachureGap=4;jiggle=2;curveFitting=1;orthogonalLoop=1;jettySize=auto;html=1;entryX=0.4;entryY=0.5;entryDx=0;entryDy=0;entryPerimeter=0;fontFamily=Architects Daughter;fontSource=https%3A%2F%2Ffonts.googleapis.com%2Fcss%3Ffamily%3DArchitects%2BDaughter;" edge="1" parent="1" source="ipbNHRgj8kkxQLIE90w0-58" target="ipbNHRgj8kkxQLIE90w0-64">
          <mxGeometry relative="1" as="geometry">
            <Array as="points">
              <mxPoint x="-255" y="1226" />
            </Array>
          </mxGeometry>
        </mxCell>
        <mxCell id="ipbNHRgj8kkxQLIE90w0-71" style="edgeStyle=orthogonalEdgeStyle;rounded=0;sketch=1;hachureGap=4;jiggle=2;curveFitting=1;orthogonalLoop=1;jettySize=auto;html=1;fontFamily=Architects Daughter;fontSource=https%3A%2F%2Ffonts.googleapis.com%2Fcss%3Ffamily%3DArchitects%2BDaughter;" edge="1" parent="1" source="ipbNHRgj8kkxQLIE90w0-70" target="ipbNHRgj8kkxQLIE90w0-69">
          <mxGeometry relative="1" as="geometry" />
        </mxCell>
        <mxCell id="ipbNHRgj8kkxQLIE90w0-70" value="&lt;font style=&quot;font-size: 31px;&quot;&gt;Fase I&lt;/font&gt;" style="text;html=1;align=center;verticalAlign=middle;whiteSpace=wrap;rounded=0;fontFamily=Architects Daughter;fontSource=https%3A%2F%2Ffonts.googleapis.com%2Fcss%3Ffamily%3DArchitects%2BDaughter;" vertex="1" parent="1">
          <mxGeometry x="370" y="-693" width="326" height="76" as="geometry" />
        </mxCell>
        <mxCell id="ipbNHRgj8kkxQLIE90w0-78" value="" style="endArrow=none;html=1;rounded=0;sketch=1;hachureGap=4;jiggle=2;curveFitting=1;fontFamily=Architects Daughter;fontSource=https%3A%2F%2Ffonts.googleapis.com%2Fcss%3Ffamily%3DArchitects%2BDaughter;exitX=0.085;exitY=0.788;exitDx=0;exitDy=0;exitPerimeter=0;elbow=vertical;fillColor=#0050ef;strokeColor=#001DBC;endFill=0;" edge="1" parent="1" source="ipbNHRgj8kkxQLIE90w0-69">
          <mxGeometry relative="1" as="geometry">
            <mxPoint x="-187" y="371" as="sourcePoint" />
            <mxPoint x="1032" y="378" as="targetPoint" />
          </mxGeometry>
        </mxCell>
        <mxCell id="ipbNHRgj8kkxQLIE90w0-79" value="&lt;div&gt;Back-end&lt;/div&gt;/ Data engineering" style="edgeLabel;resizable=0;html=1;;align=center;verticalAlign=middle;sketch=1;hachureGap=4;jiggle=2;curveFitting=1;fontFamily=Architects Daughter;fontSource=https%3A%2F%2Ffonts.googleapis.com%2Fcss%3Ffamily%3DArchitects%2BDaughter;labelBackgroundColor=#030303;fontSize=21;fontColor=#3333FF;" connectable="0" vertex="1" parent="ipbNHRgj8kkxQLIE90w0-78">
          <mxGeometry relative="1" as="geometry" />
        </mxCell>
        <mxCell id="ipbNHRgj8kkxQLIE90w0-80" style="edgeStyle=orthogonalEdgeStyle;rounded=0;sketch=1;hachureGap=4;jiggle=2;curveFitting=1;orthogonalLoop=1;jettySize=auto;html=1;entryX=-0.005;entryY=0.486;entryDx=0;entryDy=0;entryPerimeter=0;fontFamily=Architects Daughter;fontSource=https%3A%2F%2Ffonts.googleapis.com%2Fcss%3Ffamily%3DArchitects%2BDaughter;curved=1;strokeColor=#00FF80;" edge="1" parent="1" source="ipbNHRgj8kkxQLIE90w0-23" target="ipbNHRgj8kkxQLIE90w0-28">
          <mxGeometry relative="1" as="geometry" />
        </mxCell>
        <mxCell id="ipbNHRgj8kkxQLIE90w0-82" style="edgeStyle=orthogonalEdgeStyle;rounded=0;sketch=1;hachureGap=4;jiggle=2;curveFitting=1;orthogonalLoop=1;jettySize=auto;html=1;entryX=0.5;entryY=1;entryDx=0;entryDy=0;entryPerimeter=0;fontFamily=Architects Daughter;fontSource=https%3A%2F%2Ffonts.googleapis.com%2Fcss%3Ffamily%3DArchitects%2BDaughter;fontSize=12;fontColor=default;fillColor=#0050ef;strokeColor=#001DBC;" edge="1" parent="1" target="ipbNHRgj8kkxQLIE90w0-53">
          <mxGeometry relative="1" as="geometry">
            <mxPoint x="1321" y="-323" as="sourcePoint" />
          </mxGeometry>
        </mxCell>
        <mxCell id="ipbNHRgj8kkxQLIE90w0-85" value="front-end" style="text;html=1;align=center;verticalAlign=middle;whiteSpace=wrap;rounded=0;fontFamily=Architects Daughter;fontSource=https%3A%2F%2Ffonts.googleapis.com%2Fcss%3Ffamily%3DArchitects%2BDaughter;fontSize=19;fontColor=#BD7000;fontStyle=1" vertex="1" parent="1">
          <mxGeometry x="1137" y="-556" width="138" height="30" as="geometry" />
        </mxCell>
        <mxCell id="ipbNHRgj8kkxQLIE90w0-88" value="" style="endArrow=doubleBlock;html=1;rounded=0;sketch=1;hachureGap=4;jiggle=2;curveFitting=1;fontFamily=Architects Daughter;fontSource=https%3A%2F%2Ffonts.googleapis.com%2Fcss%3Ffamily%3DArchitects%2BDaughter;elbow=vertical;fillColor=#0050ef;strokeColor=#00FF80;endFill=1;" edge="1" parent="1">
          <mxGeometry relative="1" as="geometry">
            <mxPoint x="1031" y="378" as="sourcePoint" />
            <mxPoint x="1311" y="378" as="targetPoint" />
          </mxGeometry>
        </mxCell>
        <mxCell id="ipbNHRgj8kkxQLIE90w0-89" value="Data analysis" style="edgeLabel;resizable=0;html=1;;align=center;verticalAlign=middle;sketch=1;hachureGap=4;jiggle=2;curveFitting=1;fontFamily=Architects Daughter;fontSource=https%3A%2F%2Ffonts.googleapis.com%2Fcss%3Ffamily%3DArchitects%2BDaughter;labelBackgroundColor=#030303;fontSize=21;fontColor=#00FF80;" connectable="0" vertex="1" parent="ipbNHRgj8kkxQLIE90w0-88">
          <mxGeometry relative="1" as="geometry" />
        </mxCell>
      </root>
    </mxGraphModel>
  </diagram>
</mxfile>
